<svg width="24" height="25" viewBox="0 0 24 25" fill="none" xmlns="http://www.w3.org/2000/svg">
                        <g clip-path="url(#clip0_5116_57051)">
                            <path d="M11.8061 12.0312L2.08594 22.5594C2.30712 23.3698 2.87823 24.0291 3.63313 24.3453C4.38803 24.6616 5.24194 24.5994 5.94647 24.1768L16.8835 17.7371L11.8061 12.0312Z" fill="#1D272C" fill-opacity="0.8"></path>
                            <path d="M21.6354 10.238L16.9057 7.4375L11.582 12.2673L16.9274 17.7185L21.6209 14.948C22.4684 14.4892 22.9995 13.582 22.9995 12.593C22.9995 11.604 22.4684 10.6968 21.6209 10.238H21.6354Z" fill="#1D272C" fill-opacity="0.4"></path>
                            <path d="M2.08697 2.57812C2.02822 2.80268 1.99898 3.0344 2.00003 3.26702V21.8672C2.00064 22.0997 2.02985 22.3312 2.08697 22.5561L12.1403 12.2975L2.08697 2.57812Z" fill="#1D272C"></path>
                            <path d="M11.8785 12.5667L16.9052 7.43747L5.98269 0.967836C5.57178 0.71904 5.10443 0.587271 4.62824 0.585943C3.44639 0.583527 2.40737 1.3945 2.08594 2.57027L11.8785 12.5667Z" fill="#1D272C" fill-opacity="0.6"></path>
                        </g>
                        <defs>
                            <clipPath id="clip0_5116_57051">
                                <rect width="24" height="24" fill="white" transform="translate(0 0.296875)"></rect>
                            </clipPath>
                        </defs>
                    </svg>