<svg width="24" height="25" viewBox="0 0 24 25" fill="none" xmlns="http://www.w3.org/2000/svg"><g clip-path="url(#clip0_5116_57045)"><path d="M21.792 19.0002C21.429 19.8387 20.9994 20.6105 20.5016 21.3201C19.8231 22.2875 19.2676 22.9571 18.8395 23.3289C18.1758 23.9393 17.4647 24.2519 16.7032 24.2696C16.1566 24.2696 15.4973 24.1141 14.73 23.7985C13.9601 23.4845 13.2525 23.3289 12.6056 23.3289C11.9271 23.3289 11.1994 23.4845 10.4211 23.7985C9.64153 24.1141 9.01355 24.2785 8.53342 24.2948C7.80322 24.3259 7.07539 24.0045 6.3489 23.3289C5.88521 22.9245 5.30523 22.2312 4.61043 21.249C3.86498 20.2001 3.25211 18.9839 2.77198 17.5972C2.25777 16.0995 2 14.6492 2 13.2451C2 11.6367 2.34754 10.2495 3.04367 9.08698C3.59076 8.15323 4.31859 7.41666 5.22953 6.87594C6.14046 6.33522 7.12473 6.05967 8.18469 6.04204C8.76467 6.04204 9.52524 6.22144 10.4704 6.57402C11.4129 6.92779 12.0181 7.10719 12.2834 7.10719C12.4817 7.10719 13.154 6.89742 14.2937 6.47921C15.3714 6.09137 16.281 5.93078 17.0262 5.99404C19.0454 6.157 20.5624 6.95297 21.5712 8.387C19.7654 9.48119 18.8721 11.0137 18.8898 12.9798C18.9061 14.5111 19.4617 15.7854 20.5535 16.7973C21.0483 17.2669 21.6009 17.6298 22.2156 17.8876C22.0823 18.2743 21.9416 18.6446 21.792 19.0002ZM17.161 0.777012C17.161 1.97729 16.7225 3.09798 15.8484 4.13528C14.7937 5.36843 13.5179 6.081 12.1343 5.96856C12.1167 5.82456 12.1065 5.67301 12.1065 5.51376C12.1065 4.3615 12.6081 3.12835 13.4989 2.12008C13.9436 1.60958 14.5092 1.1851 15.1951 0.84649C15.8796 0.51293 16.5269 0.328464 17.1358 0.296875C17.1536 0.457333 17.161 0.617801 17.161 0.776996V0.777012Z" fill="#1D272C" fill-opacity="0.8"></path></g><defs><clipPath id="clip0_5116_57045"><rect width="24" height="24" fill="white" transform="translate(0 0.296875)"></rect></clipPath></defs></svg>